<svg id="a212889c-2685-4960-9bd8-0c12e8280759" data-name="レイヤー 1" xmlns="http://www.w3.org/2000/svg" viewBox="0 0 28 28"><title>facebook</title><path d="M26.05353.45049H1.9455a1.49479,1.49479,0,0,0-1.495,1.496v24.108a1.49523,1.49523,0,0,0,1.495,1.495h12.979V17.0555h-3.531v-4.09h3.531v-3.016c0-3.5,2.138-5.406,5.26-5.406a28.93091,28.93091,0,0,1,3.156.161v3.658l-2.166.001c-1.698,0-2.027.807-2.027,1.991v2.611h4.05l-.527,4.09h-3.523v10.494h6.906a1.49606,1.49606,0,0,0,1.496-1.495V1.94649a1.49562,1.49562,0,0,0-1.496-1.496" style="fill:#1877ed"/></svg>