<svg id="b1481339-9d3d-44dc-bfea-9ea5f0134391" data-name="レイヤー 1" xmlns="http://www.w3.org/2000/svg" viewBox="0 0 28 28"><title>insta</title><path d="M14,2.5224c3.73819,0,4.18095.01425,5.65721.08161a7.74625,7.74625,0,0,1,2.59961.48208,4.33736,4.33736,0,0,1,1.60977,1.04724A4.33736,4.33736,0,0,1,24.91383,5.7431a7.74625,7.74625,0,0,1,.48208,2.59961c.06736,1.47626.08161,1.91908.08161,5.65721s-.01425,4.18095-.08161,5.65721a7.74625,7.74625,0,0,1-.48208,2.59961,4.636,4.636,0,0,1-2.657,2.657,7.74625,7.74625,0,0,1-2.59961.48208c-1.476.06736-1.91875.0816-5.65721.0816s-4.18117-.01424-5.65721-.0816a7.74625,7.74625,0,0,1-2.59961-.48208,4.33736,4.33736,0,0,1-1.60977-1.04724,4.33736,4.33736,0,0,1-1.04724-1.60977,7.74625,7.74625,0,0,1-.48208-2.59961c-.06736-1.47626-.0816-1.91908-.0816-5.65721s.01424-4.18095.0816-5.65721A7.74625,7.74625,0,0,1,3.08617,5.7431,4.33736,4.33736,0,0,1,4.13341,4.13333,4.33736,4.33736,0,0,1,5.74318,3.08609,7.74625,7.74625,0,0,1,8.34279,2.604C9.81905,2.53665,10.26187,2.5224,14,2.5224M14,0C10.19781,0,9.72106.01611,8.22781.08424A10.277,10.277,0,0,0,4.82956.735,6.86255,6.86255,0,0,0,2.34971,2.34963a6.86251,6.86251,0,0,0-1.61477,2.48A10.2767,10.2767,0,0,0,.08416,8.22784C.016,9.721.00008,10.19773.00008,13.99992s.016,4.27894.08408,5.77219a10.2767,10.2767,0,0,0,.65078,3.39825A6.86252,6.86252,0,0,0,2.34971,25.6502a6.86249,6.86249,0,0,0,2.48,1.61478,10.2767,10.2767,0,0,0,3.39825.65078c1.49325.06813,1.97.08424,5.77219.08424s4.27894-.01611,5.77219-.08424a10.2767,10.2767,0,0,0,3.39825-.65078A7.15877,7.15877,0,0,0,27.265,23.17052a10.27645,10.27645,0,0,0,.65078-3.39825c.06819-1.49341.08414-1.97016.08414-5.77235s-.01611-4.27894-.08424-5.77219a10.277,10.277,0,0,0-.65078-3.39825,6.86255,6.86255,0,0,0-1.61461-2.47985A6.8626,6.8626,0,0,0,23.17061.73486,10.2767,10.2767,0,0,0,19.77236.08408C18.27894.016,17.80219,0,14,0Z"/><path d="M14,6.81069a7.18923,7.18923,0,1,0,7.18923,7.18923A7.18923,7.18923,0,0,0,14,6.81069Zm0,11.85589a4.66672,4.66672,0,1,1,4.66671-4.66672v.00006A4.66672,4.66672,0,0,1,14,18.66658Z"/><circle cx="21.4733" cy="6.52662" r="1.67999"/></svg>