<svg id="e7616f7d-f25a-4a67-9269-dcf026da4b3f" data-name="レイヤー 1" xmlns="http://www.w3.org/2000/svg" viewBox="0 0 32 28"><title>twitter</title><path d="M31.695,4.265a12.89189,12.89189,0,0,1-3.6991,1.014,6.458,6.458,0,0,0,2.832-3.563,12.90775,12.90775,0,0,1-4.09,1.563A6.447,6.447,0,0,0,15.764,9.153,18.28778,18.28778,0,0,1,2.49,2.424a6.449,6.449,0,0,0,1.994,8.598,6.41156,6.41156,0,0,1-2.917-.806c-.001.027-.001.054-.001.081a6.44482,6.44482,0,0,0,5.166,6.315,6.43956,6.43956,0,0,1-2.908.11A6.44518,6.44518,0,0,0,9.84,21.195a12.92624,12.92624,0,0,1-7.999,2.757,13.21366,13.21366,0,0,1-1.536-.09,18.22947,18.22947,0,0,0,9.872,2.893c11.846,0,18.32294-9.813,18.32294-18.323q0-.41854-.01795-.834a13.0729,13.0729,0,0,0,3.213-3.333" style="fill:#2a9eea"/></svg>